# File created by Blade
# Date/Time:  Thu Sep 25 15:31:15 2014
# Frame Rate: 120.000 fps
#------------------------------------------------------
:FULLY-SPECIFIED
:DEGREES
836
root 24.757300 32.250907 -4.497470 165.245572 -72.784536 -131.406074
Spine 28.866618 17.347172 -0.951768
Head -36.439711 -0.923472 8.673829
LeftShoulder 10.823931 -5.013379 24.244998
LeftArm 66.163478 -2.153112 -42.580184
LeftForeArm 8.467203 -0.000000 16.787048
LeftHand -28.230665 -0.000000 -3.277552
LeftHandThumb1 -26.253704 0.000000 33.147579
RightShoulder 9.764980 36.947378 -23.560601
RightArm 38.428307 -17.013983 67.652017
RightForeArm -21.954015 -0.000000 16.004524
RightHand -6.777176 -0.000000 3.949264
RightHandThumb1 -24.326973 -0.000000 -32.862282
LeftUpLeg -76.510353 13.720956 -0.093864
LeftLeg 33.312362 -0.000000 -0.000000
LeftFoot 24.586696 27.076190 -22.303250
LeftToeBase 0.504304 -0.000000 -0.000000
RightUpLeg -26.817991 -5.281958 21.250884
RightLeg 11.443963 -0.000000 -0.000000
RightFoot -19.336886 -13.375696 -0.999626
RightToeBase 0.615232 -0.000000 -0.000000
837
root 24.594527 32.228717 -4.500150 165.182981 -72.823332 -131.324914
Spine 28.907697 17.329961 -0.969828
Head -36.427282 -0.939997 8.647165
LeftShoulder 10.788127 -5.163301 24.443270
LeftArm 66.346004 -2.688951 -42.300765
LeftForeArm 8.459297 -0.000000 16.813908
LeftHand -28.279021 -0.000000 -3.352133
LeftHandThumb1 -26.253704 0.000000 33.147579
RightShoulder 9.813073 37.111329 -23.628702
RightArm 38.778282 -16.578905 67.300024
RightForeArm -21.874206 -0.000000 16.099618
RightHand -6.816200 -0.000000 3.859690
RightHandThumb1 -24.326973 -0.000000 -32.862282
LeftUpLeg -76.774249 13.709595 -0.315096
LeftLeg 34.966549 -0.000000 -0.000000
LeftFoot 23.539937 26.435537 -21.623989
LeftToeBase 0.265851 -0.000000 -0.000000
RightUpLeg -26.528163 -5.321841 21.127675
RightLeg 11.371875 -0.000000 -0.000000
RightFoot -19.585298 -13.400264 -0.889613
RightToeBase 0.637923 -0.000000 -0.000000
838
root 24.427780 32.205905 -4.500733 165.117643 -72.876653 -131.220179
Spine 28.930923 17.295622 -0.984415
Head -36.392490 -1.022194 8.645070
LeftShoulder 10.796683 -5.366710 24.660360
LeftArm 66.424330 -3.236276 -42.176813
LeftForeArm 8.568256 -0.000000 16.865959
LeftHand -28.127625 -0.000000 -3.382375
LeftHandThumb1 -26.253704 0.000000 33.147579
RightShoulder 9.847781 37.237507 -23.712623
RightArm 39.130705 -16.166570 66.916284
RightForeArm -21.803271 -0.000000 16.250679
RightHand -6.826844 -0.000000 3.797628
RightHandThumb1 -24.326973 -0.000000 -32.862282
LeftUpLeg -76.989969 13.702313 -0.532497
LeftLeg 36.459706 -0.000000 -0.000000
LeftFoot 22.814062 25.787464 -21.015303
LeftToeBase -1.061818 -0.000000 0.000000
RightUpLeg -26.222374 -5.319377 20.991126
RightLeg 11.265873 -0.000000 -0.000000
RightFoot -19.701097 -13.543166 -0.891896
RightToeBase 0.371457 -0.000000 -0.000000
839
root 24.255049 32.179104 -4.500176 165.236059 -72.832515 -131.262862
Spine 28.880658 17.344183 -1.051980
Head -36.264582 -1.067095 8.618600
LeftShoulder 10.795763 -5.636278 24.880585
LeftArm 66.432435 -3.667374 -41.951348
LeftForeArm 8.533742 0.000000 16.918262
LeftHand -28.167098 0.000000 -3.351259
LeftHandThumb1 -26.253704 0.000000 33.147579
RightShoulder 9.944911 37.463952 -23.769244
RightArm 39.334460 -15.758370 66.651449
RightForeArm -21.808835 -0.000000 16.393532
RightHand -6.817916 -0.000000 3.639669
RightHandThumb1 -24.326973 -0.000000 -32.862282
LeftUpLeg -77.203986 13.712974 -0.614127
LeftLeg 37.972551 -0.000000 -0.000000
LeftFoot 21.897405 25.208953 -20.654849
LeftToeBase -2.207395 -0.000000 0.000000
RightUpLeg -25.986176 -5.306192 20.870464
RightLeg 11.272014 -0.000000 -0.000000
RightFoot -20.078345 -13.498432 -0.586422
RightToeBase 0.600964 -0.000000 -0.000000
840
root 24.075606 32.152232 -4.499405 165.361781 -72.798225 -131.287778
Spine 28.814222 17.424214 -1.104643
Head -36.151734 -1.167205 8.618198
LeftShoulder 10.831986 -5.797880 25.079824
LeftArm 66.519558 -4.173460 -41.710589
LeftForeArm 8.569461 -0.000000 16.960905
LeftHand -28.152817 -0.000000 -3.355345
LeftHandThumb1 -26.253704 0.000000 33.147579
RightShoulder 9.951415 37.517884 -23.881864
RightArm 39.717607 -15.427495 66.274457
RightForeArm -22.047515 -0.000000 16.457122
RightHand -6.716210 0.000000 3.264010
RightHandThumb1 -24.326973 -0.000000 -32.862282
LeftUpLeg -77.397125 13.715209 -0.714187
LeftLeg 39.399675 -0.000000 -0.000000
LeftFoot 20.823673 24.674068 -20.246220
LeftToeBase -3.551755 -0.000000 0.000000
RightUpLeg -25.739935 -5.293038 20.745505
RightLeg 11.235626 -0.000000 -0.000000
RightFoot -20.219368 -13.529094 -0.645437
RightToeBase 0.462227 -0.000000 -0.000000
841
root 23.887359 32.124141 -4.495415 165.471736 -72.796037 -131.281172
Spine 28.776091 17.412330 -1.161230
Head -36.115997 -1.207469 8.561735
LeftShoulder 10.766475 -5.821206 25.248799
LeftArm 66.750380 -4.744751 -41.416538
LeftForeArm 8.505569 0.000000 16.962662
LeftHand -28.062666 -0.000000 -3.340619
LeftHandThumb1 -26.253704 0.000000 33.147579
RightShoulder 9.950512 37.664175 -24.010621
RightArm 40.094875 -15.085678 65.975918
RightForeArm -22.052823 0.000000 16.509508
RightHand -6.672390 -0.000000 3.089896
RightHandThumb1 -24.326973 -0.000000 -32.862282
LeftUpLeg -77.548741 13.687816 -0.797830
LeftLeg 40.698426 -0.000000 -0.000000
LeftFoot 19.763420 23.992680 -20.154078
LeftToeBase -4.812819 -0.000000 0.000000
RightUpLeg -25.468183 -5.255476 20.590229
RightLeg 11.151014 -0.000000 -0.000000
RightFoot -20.552217 -13.496563 -0.363462
RightToeBase 0.615700 -0.000000 -0.000000
842
root 23.692558 32.093739 -4.491334 165.676621 -72.786793 -131.361243
Spine 28.711771 17.440515 -1.275481
Head -36.034755 -1.284475 8.615002
LeftShoulder 10.788925 -6.091590 25.433379
LeftArm 66.724554 -5.172459 -41.171129
LeftForeArm 8.500718 -0.000000 17.031123
LeftHand -28.066524 -0.000000 -3.472426
LeftHandThumb1 -26.253704 0.000000 33.147579
RightShoulder 9.991943 37.767592 -24.111152
RightArm 40.439749 -14.709009 65.680691
RightForeArm -21.987705 -0.000000 16.606885
RightHand -6.757059 -0.000000 2.913196
RightHandThumb1 -24.326973 -0.000000 -32.862282
LeftUpLeg -77.657296 13.680362 -0.912621
LeftLeg 41.885404 -0.000000 -0.000000
LeftFoot 18.625405 23.263358 -20.169944
LeftToeBase -6.351321 -0.000000 0.000000
RightUpLeg -25.251068 -5.286258 20.448043
RightLeg 11.147671 -0.000000 -0.000000
RightFoot -20.772415 -13.507753 -0.335547
RightToeBase 0.431718 -0.000000 -0.000000
